<mxfile host="app.diagrams.net" agent="Mozilla/5.0 (X11; Linux x86_64; rv:143.0) Gecko/20100101 Firefox/143.0" version="28.1.2">
  <diagram name="Page-1" id="ldU1RQZtvzL05mEeLMg2">
    <mxGraphModel dx="633" dy="426" grid="1" gridSize="10" guides="1" tooltips="1" connect="1" arrows="1" fold="1" page="1" pageScale="1" pageWidth="850" pageHeight="1100" math="0" shadow="0">
      <root>
        <mxCell id="0" />
        <mxCell id="1" parent="0" />
        <mxCell id="GLKi2sN1O3qswHXOpoOO-16" value="&lt;div&gt;Client 1&lt;/div&gt;&lt;div&gt;&lt;br&gt;&lt;/div&gt;" style="shape=umlActor;verticalLabelPosition=bottom;verticalAlign=top;html=1;outlineConnect=0;" vertex="1" parent="1">
          <mxGeometry x="90" y="170" width="30" height="60" as="geometry" />
        </mxCell>
        <mxCell id="GLKi2sN1O3qswHXOpoOO-17" value="Server" style="rounded=0;whiteSpace=wrap;html=1;" vertex="1" parent="1">
          <mxGeometry x="345" y="170" width="120" height="60" as="geometry" />
        </mxCell>
        <mxCell id="GLKi2sN1O3qswHXOpoOO-18" value="" style="endArrow=classic;html=1;rounded=0;exitX=0;exitY=0.5;exitDx=0;exitDy=0;entryX=0.5;entryY=0.5;entryDx=0;entryDy=0;entryPerimeter=0;" edge="1" parent="1" source="GLKi2sN1O3qswHXOpoOO-17" target="GLKi2sN1O3qswHXOpoOO-16">
          <mxGeometry width="50" height="50" relative="1" as="geometry">
            <mxPoint x="590" y="-60" as="sourcePoint" />
            <mxPoint x="810" y="-60" as="targetPoint" />
          </mxGeometry>
        </mxCell>
        <mxCell id="GLKi2sN1O3qswHXOpoOO-19" value="Ack(StateTransitionProposalMessage)" style="edgeLabel;html=1;align=center;verticalAlign=middle;resizable=0;points=[];" vertex="1" connectable="0" parent="GLKi2sN1O3qswHXOpoOO-18">
          <mxGeometry x="0.0637" y="-1" relative="1" as="geometry">
            <mxPoint x="13" y="-20" as="offset" />
          </mxGeometry>
        </mxCell>
      </root>
    </mxGraphModel>
  </diagram>
</mxfile>
